<mxfile host="app.diagrams.net" modified="2023-06-21T09:23:30.652Z" agent="Mozilla/5.0 (Windows NT 10.0; Win64; x64) AppleWebKit/537.36 (KHTML, like Gecko) Chrome/114.0.0.0 Safari/537.36" etag="6csDVdezxX-knnCICu1l" version="21.3.8" type="device">
  <diagram name="Page-1" id="qY0Dn_sRDLHWsiln3zzD">
    <mxGraphModel dx="880" dy="452" grid="1" gridSize="10" guides="1" tooltips="1" connect="1" arrows="1" fold="1" page="1" pageScale="1" pageWidth="850" pageHeight="1100" math="0" shadow="0">
      <root>
        <mxCell id="0" />
        <mxCell id="1" parent="0" />
        <mxCell id="n1v6It0Wu80JJbS_K0Ll-1" value="Lecturer&amp;nbsp;" style="rounded=0;whiteSpace=wrap;html=1;" vertex="1" parent="1">
          <mxGeometry x="100" y="120" width="120" height="60" as="geometry" />
        </mxCell>
        <mxCell id="n1v6It0Wu80JJbS_K0Ll-2" value="Register Grades" style="ellipse;whiteSpace=wrap;html=1;" vertex="1" parent="1">
          <mxGeometry x="290" y="180" width="120" height="60" as="geometry" />
        </mxCell>
        <mxCell id="n1v6It0Wu80JJbS_K0Ll-3" value="Manage Exams" style="ellipse;whiteSpace=wrap;html=1;" vertex="1" parent="1">
          <mxGeometry x="260" y="260" width="120" height="80" as="geometry" />
        </mxCell>
        <mxCell id="n1v6It0Wu80JJbS_K0Ll-4" value="Register Exams" style="ellipse;whiteSpace=wrap;html=1;" vertex="1" parent="1">
          <mxGeometry x="280" y="20" width="120" height="60" as="geometry" />
        </mxCell>
        <mxCell id="n1v6It0Wu80JJbS_K0Ll-5" value="Change Dates" style="ellipse;whiteSpace=wrap;html=1;" vertex="1" parent="1">
          <mxGeometry x="460" y="280" width="120" height="50" as="geometry" />
        </mxCell>
        <mxCell id="n1v6It0Wu80JJbS_K0Ll-6" value="Login&amp;nbsp;" style="ellipse;whiteSpace=wrap;html=1;" vertex="1" parent="1">
          <mxGeometry x="310" y="100" width="120" height="60" as="geometry" />
        </mxCell>
        <mxCell id="n1v6It0Wu80JJbS_K0Ll-7" value="Change Exam room" style="ellipse;whiteSpace=wrap;html=1;" vertex="1" parent="1">
          <mxGeometry x="440" y="360" width="120" height="50" as="geometry" />
        </mxCell>
        <mxCell id="n1v6It0Wu80JJbS_K0Ll-8" value="Administrator" style="rounded=0;whiteSpace=wrap;html=1;" vertex="1" parent="1">
          <mxGeometry x="740" y="150" width="120" height="60" as="geometry" />
        </mxCell>
        <mxCell id="n1v6It0Wu80JJbS_K0Ll-9" value="Login&amp;nbsp;" style="ellipse;whiteSpace=wrap;html=1;" vertex="1" parent="1">
          <mxGeometry x="650" y="30" width="120" height="60" as="geometry" />
        </mxCell>
        <mxCell id="n1v6It0Wu80JJbS_K0Ll-10" value="Confirms Registration" style="ellipse;whiteSpace=wrap;html=1;" vertex="1" parent="1">
          <mxGeometry x="590" y="110" width="120" height="60" as="geometry" />
        </mxCell>
        <mxCell id="n1v6It0Wu80JJbS_K0Ll-11" value="Confirm Logins" style="ellipse;whiteSpace=wrap;html=1;" vertex="1" parent="1">
          <mxGeometry x="560" y="200" width="120" height="60" as="geometry" />
        </mxCell>
        <mxCell id="n1v6It0Wu80JJbS_K0Ll-12" value="sms code for confirmation" style="ellipse;whiteSpace=wrap;html=1;" vertex="1" parent="1">
          <mxGeometry x="440" y="150" width="120" height="40" as="geometry" />
        </mxCell>
        <mxCell id="n1v6It0Wu80JJbS_K0Ll-13" value="Older 5minutes" style="ellipse;whiteSpace=wrap;html=1;" vertex="1" parent="1">
          <mxGeometry x="460" y="60" width="120" height="30" as="geometry" />
        </mxCell>
        <mxCell id="n1v6It0Wu80JJbS_K0Ll-14" value="" style="endArrow=classic;html=1;rounded=0;" edge="1" parent="1" target="n1v6It0Wu80JJbS_K0Ll-6">
          <mxGeometry width="50" height="50" relative="1" as="geometry">
            <mxPoint x="210" y="120" as="sourcePoint" />
            <mxPoint x="260" y="70" as="targetPoint" />
          </mxGeometry>
        </mxCell>
        <mxCell id="n1v6It0Wu80JJbS_K0Ll-15" value="" style="endArrow=classic;html=1;rounded=0;entryX=0;entryY=0.5;entryDx=0;entryDy=0;" edge="1" parent="1" target="n1v6It0Wu80JJbS_K0Ll-4">
          <mxGeometry width="50" height="50" relative="1" as="geometry">
            <mxPoint x="220" y="130" as="sourcePoint" />
            <mxPoint x="285" y="84" as="targetPoint" />
          </mxGeometry>
        </mxCell>
        <mxCell id="n1v6It0Wu80JJbS_K0Ll-16" value="" style="endArrow=classic;html=1;rounded=0;exitX=1.025;exitY=0.4;exitDx=0;exitDy=0;exitPerimeter=0;entryX=0;entryY=0;entryDx=0;entryDy=0;" edge="1" parent="1" source="n1v6It0Wu80JJbS_K0Ll-1" target="n1v6It0Wu80JJbS_K0Ll-2">
          <mxGeometry width="50" height="50" relative="1" as="geometry">
            <mxPoint x="230" y="140" as="sourcePoint" />
            <mxPoint x="320" y="170" as="targetPoint" />
          </mxGeometry>
        </mxCell>
        <mxCell id="n1v6It0Wu80JJbS_K0Ll-17" value="" style="endArrow=classic;html=1;rounded=0;entryX=0.092;entryY=0.175;entryDx=0;entryDy=0;exitX=1.025;exitY=0.4;exitDx=0;exitDy=0;exitPerimeter=0;entryPerimeter=0;" edge="1" parent="1" target="n1v6It0Wu80JJbS_K0Ll-3">
          <mxGeometry width="50" height="50" relative="1" as="geometry">
            <mxPoint x="210" y="180" as="sourcePoint" />
            <mxPoint x="281" y="231" as="targetPoint" />
          </mxGeometry>
        </mxCell>
        <mxCell id="n1v6It0Wu80JJbS_K0Ll-18" value="" style="endArrow=classic;html=1;rounded=0;exitX=1;exitY=1;exitDx=0;exitDy=0;entryX=0;entryY=0.5;entryDx=0;entryDy=0;" edge="1" parent="1" source="n1v6It0Wu80JJbS_K0Ll-3" target="n1v6It0Wu80JJbS_K0Ll-5">
          <mxGeometry width="50" height="50" relative="1" as="geometry">
            <mxPoint x="220" y="190" as="sourcePoint" />
            <mxPoint x="400" y="330" as="targetPoint" />
          </mxGeometry>
        </mxCell>
        <mxCell id="n1v6It0Wu80JJbS_K0Ll-19" value="" style="endArrow=classic;html=1;rounded=0;entryX=0.05;entryY=0.2;entryDx=0;entryDy=0;exitX=1.025;exitY=0.4;exitDx=0;exitDy=0;exitPerimeter=0;entryPerimeter=0;" edge="1" parent="1" target="n1v6It0Wu80JJbS_K0Ll-7">
          <mxGeometry width="50" height="50" relative="1" as="geometry">
            <mxPoint x="360" y="330" as="sourcePoint" />
            <mxPoint x="431" y="381" as="targetPoint" />
          </mxGeometry>
        </mxCell>
        <mxCell id="n1v6It0Wu80JJbS_K0Ll-25" value="includes&amp;nbsp;&amp;nbsp;" style="edgeLabel;html=1;align=center;verticalAlign=middle;resizable=0;points=[];" vertex="1" connectable="0" parent="n1v6It0Wu80JJbS_K0Ll-19">
          <mxGeometry x="-0.2179" y="-1" relative="1" as="geometry">
            <mxPoint as="offset" />
          </mxGeometry>
        </mxCell>
        <mxCell id="n1v6It0Wu80JJbS_K0Ll-20" value="includes" style="text;html=1;align=center;verticalAlign=middle;resizable=0;points=[];autosize=1;strokeColor=none;fillColor=none;" vertex="1" parent="1">
          <mxGeometry x="380" y="290" width="70" height="30" as="geometry" />
        </mxCell>
        <mxCell id="n1v6It0Wu80JJbS_K0Ll-27" value="" style="endArrow=classic;html=1;rounded=0;entryX=0.642;entryY=1.017;entryDx=0;entryDy=0;entryPerimeter=0;" edge="1" parent="1" target="n1v6It0Wu80JJbS_K0Ll-9">
          <mxGeometry width="50" height="50" relative="1" as="geometry">
            <mxPoint x="750" y="150" as="sourcePoint" />
            <mxPoint x="800" y="100" as="targetPoint" />
          </mxGeometry>
        </mxCell>
        <mxCell id="n1v6It0Wu80JJbS_K0Ll-28" value="" style="endArrow=classic;html=1;rounded=0;entryX=0.917;entryY=0.833;entryDx=0;entryDy=0;entryPerimeter=0;exitX=0;exitY=0.5;exitDx=0;exitDy=0;" edge="1" parent="1" source="n1v6It0Wu80JJbS_K0Ll-8" target="n1v6It0Wu80JJbS_K0Ll-10">
          <mxGeometry width="50" height="50" relative="1" as="geometry">
            <mxPoint x="721.5" y="210" as="sourcePoint" />
            <mxPoint x="698.5" y="151" as="targetPoint" />
          </mxGeometry>
        </mxCell>
        <mxCell id="n1v6It0Wu80JJbS_K0Ll-29" value="" style="endArrow=classic;html=1;rounded=0;entryX=1;entryY=0.5;entryDx=0;entryDy=0;" edge="1" parent="1" source="n1v6It0Wu80JJbS_K0Ll-8" target="n1v6It0Wu80JJbS_K0Ll-11">
          <mxGeometry width="50" height="50" relative="1" as="geometry">
            <mxPoint x="733" y="260" as="sourcePoint" />
            <mxPoint x="710" y="201" as="targetPoint" />
          </mxGeometry>
        </mxCell>
        <mxCell id="n1v6It0Wu80JJbS_K0Ll-30" value="" style="endArrow=classic;html=1;rounded=0;entryX=0.8;entryY=0.85;entryDx=0;entryDy=0;entryPerimeter=0;exitX=0;exitY=0.5;exitDx=0;exitDy=0;" edge="1" parent="1" source="n1v6It0Wu80JJbS_K0Ll-11" target="n1v6It0Wu80JJbS_K0Ll-12">
          <mxGeometry width="50" height="50" relative="1" as="geometry">
            <mxPoint x="750" y="215" as="sourcePoint" />
            <mxPoint x="690" y="240" as="targetPoint" />
          </mxGeometry>
        </mxCell>
        <mxCell id="n1v6It0Wu80JJbS_K0Ll-31" value="extends" style="text;html=1;align=center;verticalAlign=middle;resizable=0;points=[];autosize=1;strokeColor=none;fillColor=none;" vertex="1" parent="1">
          <mxGeometry x="495" y="195" width="70" height="30" as="geometry" />
        </mxCell>
        <mxCell id="n1v6It0Wu80JJbS_K0Ll-32" value="" style="endArrow=classic;html=1;rounded=0;exitX=0.233;exitY=0;exitDx=0;exitDy=0;exitPerimeter=0;entryX=0.792;entryY=1;entryDx=0;entryDy=0;entryPerimeter=0;" edge="1" parent="1" source="n1v6It0Wu80JJbS_K0Ll-10" target="n1v6It0Wu80JJbS_K0Ll-13">
          <mxGeometry width="50" height="50" relative="1" as="geometry">
            <mxPoint x="600" y="110" as="sourcePoint" />
            <mxPoint x="560" y="100" as="targetPoint" />
          </mxGeometry>
        </mxCell>
        <mxCell id="n1v6It0Wu80JJbS_K0Ll-33" value="" style="endArrow=classic;html=1;rounded=0;exitX=1.017;exitY=0.367;exitDx=0;exitDy=0;exitPerimeter=0;entryX=0;entryY=0.5;entryDx=0;entryDy=0;" edge="1" parent="1" source="n1v6It0Wu80JJbS_K0Ll-4" target="n1v6It0Wu80JJbS_K0Ll-13">
          <mxGeometry width="50" height="50" relative="1" as="geometry">
            <mxPoint x="400" y="240" as="sourcePoint" />
            <mxPoint x="450" y="190" as="targetPoint" />
          </mxGeometry>
        </mxCell>
        <mxCell id="n1v6It0Wu80JJbS_K0Ll-35" value="extends" style="edgeLabel;html=1;align=center;verticalAlign=middle;resizable=0;points=[];" vertex="1" connectable="0" parent="n1v6It0Wu80JJbS_K0Ll-33">
          <mxGeometry x="-0.4247" y="1" relative="1" as="geometry">
            <mxPoint as="offset" />
          </mxGeometry>
        </mxCell>
        <mxCell id="n1v6It0Wu80JJbS_K0Ll-34" value="extends" style="text;html=1;align=center;verticalAlign=middle;resizable=0;points=[];autosize=1;strokeColor=none;fillColor=none;" vertex="1" parent="1">
          <mxGeometry x="565" y="88" width="70" height="30" as="geometry" />
        </mxCell>
        <mxCell id="n1v6It0Wu80JJbS_K0Ll-36" value="" style="endArrow=none;html=1;rounded=0;exitX=1;exitY=1;exitDx=0;exitDy=0;entryX=-0.017;entryY=0.3;entryDx=0;entryDy=0;entryPerimeter=0;" edge="1" parent="1" source="n1v6It0Wu80JJbS_K0Ll-6" target="n1v6It0Wu80JJbS_K0Ll-12">
          <mxGeometry width="50" height="50" relative="1" as="geometry">
            <mxPoint x="400" y="240" as="sourcePoint" />
            <mxPoint x="450" y="190" as="targetPoint" />
          </mxGeometry>
        </mxCell>
      </root>
    </mxGraphModel>
  </diagram>
</mxfile>
